<?xml version="1.0" standalone="no"?>
<!DOCTYPE svg PUBLIC "-//W3C//DTD SVG 20010904//EN"
 "http://www.w3.org/TR/2001/REC-SVG-20010904/DTD/svg10.dtd">
<svg version="1.0" xmlns="http://www.w3.org/2000/svg"
 width="263.000000pt" height="263.000000pt" viewBox="0 0 263.000000 263.000000"
 preserveAspectRatio="xMidYMid meet">

<g transform="translate(0.000000,263.000000) scale(0.100000,-0.100000)"
fill="#000000" stroke="none">
<path d="M1340 2182 c0 -264 -3 -352 -12 -364 -12 -13 -30 -25 -138 -85 -156
-88 -256 -146 -264 -153 -9 -9 -12 -477 -3 -486 2 -3 18 3 34 13 17 10 61 36
99 57 38 22 96 56 129 75 33 20 82 47 108 61 l47 25 0 247 c0 137 3 248 8 248
4 0 49 -25 101 -55 51 -30 95 -55 96 -55 2 0 39 -21 83 -47 44 -27 94 -56 111
-65 l31 -17 0 -249 0 -248 33 -17 c17 -9 39 -21 47 -26 8 -6 44 -27 80 -47
120 -68 254 -146 347 -201 51 -30 96 -52 101 -49 5 3 8 271 6 597 l-2 593 -24
18 c-12 9 -26 18 -29 18 -4 0 -58 30 -120 66 -425 246 -858 494 -863 494 -3 0
-6 -157 -6 -348z"/>
</g>
</svg>
